<?xml version="1.0" standalone="no"?>
<!DOCTYPE svg PUBLIC "-//W3C//DTD SVG 20010904//EN"
 "http://www.w3.org/TR/2001/REC-SVG-20010904/DTD/svg10.dtd">
<svg version="1.0" xmlns="http://www.w3.org/2000/svg"
 width="2000.000000pt" height="2000.000000pt" viewBox="0 0 2000.000000 2000.000000"
 preserveAspectRatio="xMidYMid meet">
<metadata>
Created by potrace 1.14, written by Peter Selinger 2001-2017
</metadata>
<g transform="translate(0.000000,2000.000000) scale(0.100000,-0.100000)"
fill="#000000" stroke="none">
<path d="M0 10000 l0 -10000 10000 0 10000 0 0 10000 0 10000 -10000 0 -10000
0 0 -10000z m4710 9420 c37 -6 102 -28 150 -51 99 -47 -72 121 2126 -2092 733
-739 1366 -1369 1414 -1406 385 -307 859 -502 1339 -550 147 -15 405 -14 552
4 484 56 931 243 1314 550 53 42 781 768 1755 1749 939 946 1687 1692 1715
1710 171 111 360 124 543 35 194 -94 322 -296 322 -510 0 -119 -1407 -14406
-1426 -14478 -50 -191 -201 -351 -379 -402 -38 -11 -95 -31 -125 -44 -30 -13
-99 -42 -153 -64 -334 -136 -628 -413 -799 -755 -61 -121 -119 -295 -144 -431
-26 -137 -26 -440 -1 -570 23 -114 60 -237 103 -343 19 -45 34 -84 34 -87 0
-3 -1372 -5 -3050 -5 -1700 0 -3050 4 -3050 9 0 4 13 37 29 72 38 84 86 241
108 354 25 130 25 434 -1 570 -57 309 -206 601 -420 823 -160 166 -356 300
-541 372 -44 17 -105 42 -135 55 -30 13 -87 33 -125 44 -180 52 -342 228 -384
416 -17 77 -1422 14358 -1422 14457 -1 237 149 455 369 538 100 38 177 46 282
30z m-940 -4457 c0 -10 43 -434 94 -943 52 -509 91 -929 88 -934 -9 -15 -232
1 -317 24 -297 78 -549 319 -644 615 -138 428 20 879 389 1117 86 55 194 100
295 121 92 20 95 20 95 0z m12607 -14 c251 -66 463 -244 583 -493 62 -127 89
-232 97 -367 25 -454 -266 -867 -692 -979 -85 -23 -308 -39 -317 -24 -3 5 37
425 88 934 51 509 94 933 94 943 0 21 25 18 147 -14z m-12227 -3771 c0 -7 43
-431 94 -943 52 -511 92 -932 90 -934 -9 -10 -207 -1 -269 12 -244 51 -471
211 -603 427 -164 266 -186 606 -59 899 49 113 100 185 206 291 128 127 249
197 414 240 85 22 127 25 127 8z m11868 -19 c209 -65 401 -215 520 -409 162
-263 186 -601 63 -889 -117 -275 -375 -487 -666 -548 -62 -13 -260 -22 -269
-12 -2 2 38 423 90 934 51 512 94 936 94 944 0 18 72 9 168 -20z m-11488
-3765 c0 -13 180 -1803 185 -1841 l6 -43 -94 0 c-631 0 -1074 626 -880 1245
94 300 348 547 643 624 73 19 140 27 140 15z m11076 -14 c168 -43 339 -151
457 -288 410 -472 267 -1212 -288 -1489 -127 -63 -255 -93 -402 -93 l-94 0 6
43 c4 34 185 1831 185 1843 0 10 65 2 136 -16z m-2556 -6440 l0 -370 -3050 0
-3050 0 0 370 0 370 3050 0 3050 0 0 -370z"/>
<path d="M6360 14950 c-409 -51 -733 -366 -806 -784 -19 -106 -14 -283 11
-384 41 -169 125 -322 244 -445 118 -124 272 -214 436 -258 115 -31 306 -31
428 -1 382 95 659 415 707 816 64 539 -335 1028 -865 1059 -49 3 -119 2 -155
-3z"/>
<path d="M13421 14949 c-40 -5 -118 -24 -172 -43 -417 -142 -682 -568 -629
-1011 48 -403 324 -722 707 -817 121 -30 313 -30 428 1 164 43 317 134 436
258 303 314 355 799 127 1174 -71 116 -216 258 -328 322 -105 59 -242 104
-357 117 -98 11 -107 11 -212 -1z"/>
<path d="M6735 11163 c-332 -52 -621 -298 -731 -620 -41 -121 -54 -199 -54
-328 0 -431 282 -803 695 -917 66 -18 106 -22 230 -22 134 1 160 4 238 27 166
51 306 136 418 253 273 288 340 717 169 1082 -92 196 -262 365 -455 453 -119
54 -198 71 -345 74 -74 2 -148 1 -165 -2z"/>
<path d="M12950 11154 c-190 -40 -346 -129 -486 -275 -406 -427 -320 -1144
175 -1464 138 -89 277 -133 451 -141 370 -19 703 188 871 539 55 116 80 220
86 362 7 145 -6 236 -51 368 -84 246 -280 457 -518 559 -149 63 -374 86 -528
52z"/>
<path d="M7167 7428 c-106 -12 -245 -58 -347 -115 -112 -64 -257 -206 -328
-322 -234 -385 -170 -893 150 -1197 185 -175 388 -257 633 -257 183 1 343 47
492 145 297 194 465 552 424 904 -52 453 -383 794 -819 844 -97 11 -96 11
-205 -2z"/>
<path d="M12614 7429 c-294 -34 -570 -231 -707 -504 -189 -378 -118 -826 177
-1121 151 -151 329 -238 543 -264 394 -50 799 197 952 581 53 133 65 199 65
364 0 207 -31 324 -133 500 -65 113 -217 264 -331 328 -108 60 -239 102 -362
116 -106 12 -102 12 -204 0z"/>
</g>
</svg>
