<svg xmlns="http://www.w3.org/2000/svg" width="732" height="943" viewBox="0 0 732 943">
  <defs>
    <style>
      .cls-1 {
        fill: #ccfcc4;
        fill-rule: evenodd;
      }
    </style>
  </defs>
  <path id="Color_Fill_1" data-name="Color Fill 1" class="cls-1" d="M678.087,369.34l-2.9,26.129-194.509,8.709q-29.029,158.205-58.063,316.441c-6.74,31.176-3.176,80.88-26.128,95.8-13.621,5.558-19.924.124-29.031-5.806q-43.543-329.472-87.094-659.01C279.346,195.53,247.344,465.422,231,476.756H216.489q-14.514-39.187-29.032-78.384L53.913,392.565V369.34c55.926-1.145,131.555.192,165.479,8.71C222.92,306.3,245.2,59.889,271.648,12.255l23.225,2.9q1.452,4.354,2.9,8.709,47.9,323.667,95.8,647.4c1.759-59.29,35.339-265.109,58.062-307.732Z"/>
</svg>
